# xmcd
# 
# Track frame offsets:
#     150
#     12450
#     21615
#     31172
#     41422
#     51725
#     61550
#     72215
#     84455
#     94475
#     107052
#     117812
#     128002
#     139395
#     149475
#     158797
# 
# Disc length: 2273
# 
# Revision: 3
# Processed by: cddbd v1.5.2PL0 Copyright (c) Steve Scherf et al.
# Submitted via: fre:ac v1.0.31
# 
DISCID=e408df10
DTITLE=Johnny Cash - The Best Of Johnny Cash
DYEAR=1988
DGENRE=Country
TTITLE0=I Walk The Line
TTITLE1=Blues Train
TTITLE2=Down The Street To 301
TTITLE3=Goodbye Little Darlin'
TTITLE4=The Ways Of A Woman In Love
TTITLE5=Rock Island Line
TTITLE6=Train Of Love
TTITLE7=Folsom Prison Blues
TTITLE8=Hey Porter
TTITLE9=Give My Love To Rose
TTITLE10=Cry Cry Cry
TTITLE11=I Could Never Be Ashamed Of You
TTITLE12=Big River
TTITLE13=Get Rhythm
TTITLE14=Luther's Boogie
TTITLE15=You Are The Nearest Thing To Heaven
EXTD=YEAR: 1988
EXTT0=
EXTT1=
EXTT2=
EXTT3=
EXTT4=
EXTT5=
EXTT6=
EXTT7=
EXTT8=
EXTT9=
EXTT10=
EXTT11=
EXTT12=
EXTT13=
EXTT14=
EXTT15=
PLAYORDER=
